<svg xmlns="http://www.w3.org/2000/svg" style="display:none">
    <symbol id="icon-animal" viewBox="0 0 24 24">
            <path fill="currentColor" d="M19.0316 11.3351C18.9913 11.3351 18.9611 11.3286 18.9409 11.3156C18.9208 11.3026 18.8973 11.2961 18.8705 11.2961L18.8604 11.218C18.8604 11.218 18.8637 11.1398 18.8705 10.9836C18.951 10.7102 19.1155 10.4791 19.3638 10.2903C19.6122 10.1015 19.8371 10.0071 20.0385 10.0071H20.1593C20.1593 10.0071 20.1727 10.0202 20.1996 10.0462C20.213 10.0462 20.2264 10.0722 20.2398 10.1243C20.2533 10.1764 20.2398 10.2545 20.1996 10.3587C20.1459 10.6321 19.9948 10.8632 19.7465 11.052C19.4981 11.2408 19.2598 11.3351 19.0316 11.3351ZM13.6346 8.48382C13.5406 8.35363 13.4634 8.15833 13.403 7.89794C13.3426 7.63754 13.3526 7.31205 13.4332 6.92146C13.554 6.28349 13.8225 5.74643 14.2387 5.31027C14.6549 4.8741 15.0442 4.65602 15.4067 4.65602C15.5007 4.65602 15.5812 4.6723 15.6484 4.70485C15.7155 4.7374 15.7692 4.78622 15.8095 4.85132C15.9303 4.98152 16.0209 5.17681 16.0813 5.43721C16.1418 5.6976 16.1317 6.0231 16.0511 6.41369C15.89 7.20789 15.5242 7.83935 14.9536 8.30806C14.383 8.77677 13.9434 8.83536 13.6346 8.48382ZM7.91539 6.41369C7.83483 6.0231 7.82476 5.70086 7.88518 5.44697C7.94559 5.19309 8.03621 4.99454 8.15704 4.85132C8.21074 4.79924 8.27116 4.75367 8.33828 4.71461C8.40541 4.67555 8.47925 4.65602 8.5598 4.65602C8.92229 4.65602 9.31162 4.87085 9.7278 5.3005C10.144 5.73015 10.4125 6.27047 10.5333 6.92146C10.6139 7.31205 10.6273 7.63429 10.5736 7.88817C10.5199 8.14206 10.4393 8.34061 10.3319 8.48382C10.0366 8.80932 9.60026 8.74747 9.02298 8.29829C8.44569 7.84911 8.07649 7.22091 7.91539 6.41369ZM4.93496 11.3351C4.72016 11.3351 4.48857 11.2408 4.2402 11.052C3.99183 10.8632 3.83409 10.6321 3.76696 10.3587C3.75353 10.2675 3.75018 10.1927 3.75689 10.1341L3.76696 10.0462C3.76696 10.0332 3.77703 10.0234 3.79717 10.0169C3.8173 10.0104 3.86094 10.0071 3.92806 10.0071C4.12944 10.0071 4.35432 10.1015 4.60269 10.2903C4.85105 10.4791 5.01552 10.7102 5.09607 10.9836C5.10949 11.0748 5.11285 11.1496 5.10614 11.2082L5.09607 11.2961C5.08264 11.2961 5.0625 11.3026 5.03565 11.3156C5.0088 11.3286 4.97524 11.3351 4.93496 11.3351ZM20.0385 7.31205C19.7834 7.31205 19.5249 7.34785 19.2631 7.41946C19.0013 7.49107 18.7496 7.58546 18.508 7.70264C18.5617 7.57244 18.6087 7.4455 18.6489 7.32181C18.6892 7.19813 18.7228 7.06467 18.7496 6.92146C18.8839 6.20537 18.8839 5.51858 18.7496 4.86109C18.6154 4.20359 18.3469 3.64049 17.9441 3.17178C17.6219 2.80722 17.246 2.52079 16.8164 2.31247C16.3868 2.10416 15.9169 2 15.4067 2C14.7892 2 14.1817 2.16275 13.5842 2.48824C12.9868 2.81373 12.4531 3.24989 11.9833 3.79672C11.5402 3.24989 11.02 2.81373 10.4226 2.48824C9.82514 2.16275 9.20422 2 8.5598 2C8.06306 2 7.59653 2.1009 7.16021 2.30271C6.72389 2.50451 6.34462 2.7942 6.02241 3.17178C5.61965 3.64049 5.35115 4.20033 5.21689 4.85132C5.08264 5.50231 5.08264 6.19235 5.21689 6.92146C5.25717 7.05165 5.29745 7.1786 5.33772 7.30228C5.378 7.42597 5.41827 7.55942 5.45855 7.70264C5.21689 7.58546 4.96853 7.49107 4.71345 7.41946C4.45836 7.34785 4.19657 7.31205 3.92806 7.31205C3.4716 7.31205 3.03864 7.40319 2.62916 7.58546C2.21969 7.76774 1.87399 8.02813 1.59206 8.36665C1.31013 8.71818 1.12888 9.12505 1.04833 9.58725C0.967779 10.0494 0.987917 10.5149 1.10875 10.9836C1.31013 11.8169 1.78001 12.5265 2.5184 13.1123C3.2568 13.6982 4.06232 13.9912 4.93496 13.9912C5.39142 13.9912 5.82103 13.9 6.22379 13.7178C6.62655 13.5355 6.96219 13.2751 7.23069 12.9366C7.48578 12.6241 7.65695 12.2758 7.74421 11.8917C7.83148 11.5077 7.84826 11.1008 7.79456 10.6711C8.13019 10.8795 8.47925 11.0422 8.84173 11.1594C9.20422 11.2766 9.5667 11.3351 9.92918 11.3351C10.3051 11.3351 10.6709 11.27 11.0267 11.1398C11.3825 11.0097 11.7013 10.8274 11.9833 10.593C12.2652 10.8274 12.5807 11.0097 12.9297 11.1398C13.2788 11.27 13.648 11.3351 14.0373 11.3351C14.4132 11.3351 14.7824 11.2798 15.1449 11.1691C15.5074 11.0585 15.8498 10.8925 16.172 10.6711C16.1183 11.1008 16.1317 11.5077 16.2122 11.8917C16.2928 12.2758 16.4673 12.6241 16.7358 12.9366C16.9909 13.2621 17.3198 13.5192 17.7226 13.708C18.1253 13.8968 18.5617 13.9912 19.0316 13.9912C19.8908 13.9912 20.6929 13.7015 21.438 13.1221C22.1832 12.5427 22.6698 11.8299 22.8981 10.9836C23.0189 10.5149 23.0323 10.0494 22.9383 9.58725C22.8443 9.12505 22.6564 8.71818 22.3745 8.36665C22.0925 8.04115 21.7535 7.78401 21.3575 7.59523C20.9614 7.40644 20.5218 7.31205 20.0385 7.31205ZM14.9637 19.1079C14.5609 19.0168 14.1045 18.9159 13.5943 18.8052C13.0841 18.6945 12.5471 18.6392 11.9833 18.6392C11.4194 18.6392 10.8891 18.6913 10.3924 18.7954C9.89562 18.8996 9.43245 19.0038 9.00284 19.1079C8.82831 19.147 8.64035 19.1893 8.43897 19.2349C8.23759 19.2804 8.06306 19.3032 7.91539 19.3032C7.90196 19.2642 7.89189 19.1991 7.88518 19.1079C7.87847 19.0168 7.87511 18.8996 7.87511 18.7564C7.87511 18.1054 7.98251 17.487 8.19732 16.9011C8.41212 16.3282 8.70748 15.827 9.08339 15.3973C9.4593 14.9676 9.89562 14.6226 10.3924 14.3622C10.8891 14.1149 11.4194 13.9912 11.9833 13.9912C12.5605 13.9912 13.0976 14.1149 13.5943 14.3622C14.1045 14.6226 14.5475 14.9676 14.9234 15.3973C15.2993 15.827 15.5947 16.3282 15.8095 16.9011C16.0243 17.487 16.1317 18.1054 16.1317 18.7564C16.1317 18.8866 16.125 19.0005 16.1115 19.0982C16.0981 19.1958 16.078 19.2642 16.0511 19.3032C15.9169 19.3032 15.7491 19.2804 15.5477 19.2349C15.3463 19.1893 15.1516 19.147 14.9637 19.1079ZM5.09607 18.7564C5.09607 19.186 5.15312 19.6613 5.26724 20.1821C5.38136 20.7028 5.67336 21.139 6.14324 21.4905C6.66683 21.8811 7.23069 22.0471 7.83483 21.9885C8.43897 21.9299 9.04311 21.829 9.64725 21.6858C10.0232 21.5947 10.4058 21.5133 10.7951 21.4417C11.1845 21.3701 11.5805 21.3343 11.9833 21.3343C12.386 21.3343 12.7787 21.3668 13.1613 21.4319C13.544 21.497 13.9299 21.5817 14.3193 21.6858C14.6415 21.7639 14.9637 21.8356 15.2859 21.9007C15.6081 21.9658 15.9303 21.9983 16.2525 21.9983C16.5076 21.9983 16.7727 21.9625 17.048 21.8909C17.3232 21.8193 17.5816 21.6858 17.8233 21.4905C18.2797 21.139 18.5684 20.7028 18.6892 20.1821C18.81 19.6613 18.8705 19.186 18.8705 18.7564C18.8705 17.7278 18.6892 16.7644 18.3267 15.866C17.9642 14.9676 17.4709 14.1832 16.8466 13.5127C16.2223 12.8422 15.494 12.3116 14.6616 11.921C13.8292 11.5304 12.9365 11.3351 11.9833 11.3351C11.0435 11.3351 10.1507 11.5304 9.30491 11.921C8.47254 12.3116 7.74421 12.8422 7.11994 13.5127C6.49566 14.1832 6.00228 14.9676 5.63979 15.866C5.27731 16.7644 5.09607 17.7278 5.09607 18.7564Z">
            </path>
    </symbol>
</svg>

